<?xml version="1.0" encoding="UTF-8" standalone="no"?>
<!DOCTYPE svg PUBLIC "-//W3C//DTD SVG 1.1//EN"
 "http://www.w3.org/Graphics/SVG/1.1/DTD/svg11.dtd">
<!-- Generated by graphviz version 6.0.1 (20220911.1526)
 -->
<!-- Pages: 1 -->
<svg width="381pt" height="260pt"
 viewBox="0.00 0.00 381.00 260.00" xmlns="http://www.w3.org/2000/svg" xmlns:xlink="http://www.w3.org/1999/xlink">
<g id="graph0" class="graph" transform="scale(1 1) rotate(0) translate(4 256)">
<polygon fill="white" stroke="none" points="-4,4 -4,-256 377,-256 377,4 -4,4"/>
<!-- version 1 -->
<g id="node1" class="node">
<title>version 1</title>
<polygon fill="none" stroke="black" points="67,-144 0,-144 0,-108 67,-108 67,-144"/>
<text text-anchor="middle" x="33.5" y="-122.3" font-family="Times,serif" font-size="14.00">version 1</text>
</g>
<!-- your version 2 -->
<g id="node2" class="node">
<title>your version 2</title>
<polygon fill="none" stroke="black" points="362,-252 267,-252 267,-216 362,-216 362,-252"/>
<text text-anchor="middle" x="314.5" y="-230.3" font-family="Times,serif" font-size="14.00">your version 2</text>
</g>
<!-- version 1&#45;&gt;your version 2 -->
<g id="edge1" class="edge">
<title>version 1&#45;&gt;your version 2</title>
<path fill="none" stroke="black" d="M44.4,-144.27C55.82,-163.38 76.47,-192.57 103,-207 150.29,-232.73 212.18,-237.88 256.59,-237.57"/>
<polygon fill="none" stroke="black" points="256.69,-241.06 266.63,-237.4 256.57,-234.07 256.69,-241.06"/>
</g>
<!-- version 1 person 1 -->
<g id="node3" class="node">
<title>version 1 person 1</title>
<polygon fill="none" stroke="black" points="220,-198 103,-198 103,-162 220,-162 220,-198"/>
<text text-anchor="middle" x="161.5" y="-176.3" font-family="Times,serif" font-size="14.00">version 1 person 1</text>
</g>
<!-- version 1&#45;&gt;version 1 person 1 -->
<g id="edge2" class="edge">
<title>version 1&#45;&gt;version 1 person 1</title>
<path fill="none" stroke="black" d="M67.28,-140.05C79.95,-145.48 94.77,-151.83 108.82,-157.85"/>
<polygon fill="none" stroke="black" points="107.81,-161.23 118.38,-161.95 110.57,-154.79 107.81,-161.23"/>
</g>
<!-- version 1 person 2 -->
<g id="node5" class="node">
<title>version 1 person 2</title>
<polygon fill="none" stroke="black" points="220,-144 103,-144 103,-108 220,-108 220,-144"/>
<text text-anchor="middle" x="161.5" y="-122.3" font-family="Times,serif" font-size="14.00">version 1 person 2</text>
</g>
<!-- version 1&#45;&gt;version 1 person 2 -->
<g id="edge4" class="edge">
<title>version 1&#45;&gt;version 1 person 2</title>
<path fill="none" stroke="black" d="M67.28,-126C75.22,-126 84.01,-126 92.92,-126"/>
<polygon fill="none" stroke="black" points="92.99,-129.5 102.99,-126 92.99,-122.5 92.99,-129.5"/>
</g>
<!-- version 1 person 3 -->
<g id="node7" class="node">
<title>version 1 person 3</title>
<polygon fill="none" stroke="black" points="220,-90 103,-90 103,-54 220,-54 220,-90"/>
<text text-anchor="middle" x="161.5" y="-68.3" font-family="Times,serif" font-size="14.00">version 1 person 3</text>
</g>
<!-- version 1&#45;&gt;version 1 person 3 -->
<g id="edge6" class="edge">
<title>version 1&#45;&gt;version 1 person 3</title>
<path fill="none" stroke="black" d="M67.28,-111.95C79.95,-106.52 94.77,-100.17 108.82,-94.15"/>
<polygon fill="none" stroke="black" points="110.57,-97.21 118.38,-90.05 107.81,-90.77 110.57,-97.21"/>
</g>
<!-- version 1 person 4 -->
<g id="node9" class="node">
<title>version 1 person 4</title>
<polygon fill="none" stroke="black" points="220,-36 103,-36 103,0 220,0 220,-36"/>
<text text-anchor="middle" x="161.5" y="-14.3" font-family="Times,serif" font-size="14.00">version 1 person 4</text>
</g>
<!-- version 1&#45;&gt;version 1 person 4 -->
<g id="edge8" class="edge">
<title>version 1&#45;&gt;version 1 person 4</title>
<path fill="none" stroke="black" d="M46.31,-107.93C58.7,-90.08 79.61,-62.92 103,-45 104.58,-43.79 106.21,-42.62 107.9,-41.49"/>
<polygon fill="none" stroke="black" points="109.93,-44.34 116.63,-36.13 106.27,-38.38 109.93,-44.34"/>
</g>
<!-- version 2 person 1 -->
<g id="node4" class="node">
<title>version 2 person 1</title>
<polygon fill="none" stroke="black" points="373,-198 256,-198 256,-162 373,-162 373,-198"/>
<text text-anchor="middle" x="314.5" y="-176.3" font-family="Times,serif" font-size="14.00">version 2 person 1</text>
</g>
<!-- version 1 person 1&#45;&gt;version 2 person 1 -->
<g id="edge3" class="edge">
<title>version 1 person 1&#45;&gt;version 2 person 1</title>
<path fill="none" stroke="black" d="M220.02,-180C228.46,-180 237.23,-180 245.86,-180"/>
<polygon fill="none" stroke="black" points="245.89,-183.5 255.89,-180 245.89,-176.5 245.89,-183.5"/>
</g>
<!-- version 2 person 2 -->
<g id="node6" class="node">
<title>version 2 person 2</title>
<polygon fill="none" stroke="black" points="373,-144 256,-144 256,-108 373,-108 373,-144"/>
<text text-anchor="middle" x="314.5" y="-122.3" font-family="Times,serif" font-size="14.00">version 2 person 2</text>
</g>
<!-- version 1 person 2&#45;&gt;version 2 person 2 -->
<g id="edge5" class="edge">
<title>version 1 person 2&#45;&gt;version 2 person 2</title>
<path fill="none" stroke="black" d="M220.02,-126C228.46,-126 237.23,-126 245.86,-126"/>
<polygon fill="none" stroke="black" points="245.89,-129.5 255.89,-126 245.89,-122.5 245.89,-129.5"/>
</g>
<!-- version 2 person 3 -->
<g id="node8" class="node">
<title>version 2 person 3</title>
<polygon fill="none" stroke="black" points="373,-90 256,-90 256,-54 373,-54 373,-90"/>
<text text-anchor="middle" x="314.5" y="-68.3" font-family="Times,serif" font-size="14.00">version 2 person 3</text>
</g>
<!-- version 1 person 3&#45;&gt;version 2 person 3 -->
<g id="edge7" class="edge">
<title>version 1 person 3&#45;&gt;version 2 person 3</title>
<path fill="none" stroke="black" d="M220.02,-72C228.46,-72 237.23,-72 245.86,-72"/>
<polygon fill="none" stroke="black" points="245.89,-75.5 255.89,-72 245.89,-68.5 245.89,-75.5"/>
</g>
<!-- version 2 person 4 -->
<g id="node10" class="node">
<title>version 2 person 4</title>
<polygon fill="none" stroke="black" points="373,-36 256,-36 256,0 373,0 373,-36"/>
<text text-anchor="middle" x="314.5" y="-14.3" font-family="Times,serif" font-size="14.00">version 2 person 4</text>
</g>
<!-- version 1 person 4&#45;&gt;version 2 person 4 -->
<g id="edge9" class="edge">
<title>version 1 person 4&#45;&gt;version 2 person 4</title>
<path fill="none" stroke="black" d="M220.02,-18C228.46,-18 237.23,-18 245.86,-18"/>
<polygon fill="none" stroke="black" points="245.89,-21.5 255.89,-18 245.89,-14.5 245.89,-21.5"/>
</g>
</g>
</svg>
