<?xml version="1.0" encoding="UTF-8" standalone="no"?>
<!DOCTYPE svg PUBLIC "-//W3C//DTD SVG 1.1//EN"
 "http://www.w3.org/Graphics/SVG/1.1/DTD/svg11.dtd">
<!-- Generated by graphviz version 9.0.0 (20230911.1827)
 -->
<!-- Pages: 1 -->
<svg width="626pt" height="188pt"
 viewBox="0.00 0.00 625.50 188.00" xmlns="http://www.w3.org/2000/svg" xmlns:xlink="http://www.w3.org/1999/xlink">
<g id="graph0" class="graph" transform="scale(1 1) rotate(0) translate(4 184)">
<polygon fill="white" stroke="none" points="-4,4 -4,-184 621.5,-184 621.5,4 -4,4"/>
<!-- paper -->
<g id="node1" class="node">
<title>paper</title>
<text text-anchor="middle" x="221.5" y="-12.95" font-family="Times,serif" font-size="14.00">paper</text>
</g>
<!-- docs -->
<g id="node2" class="node">
<title>docs</title>
<text text-anchor="middle" x="296.5" y="-84.95" font-family="Times,serif" font-size="14.00">docs</text>
</g>
<!-- paper&#45;&gt;docs -->
<g id="edge1" class="edge">
<title>paper&#45;&gt;docs</title>
<path fill="none" stroke="black" d="M239.66,-35.95C251.45,-46.95 266.75,-61.24 278.51,-72.21"/>
</g>
<!-- project -->
<g id="node3" class="node">
<title>project</title>
<text text-anchor="middle" x="410.5" y="-156.95" font-family="Times,serif" font-size="14.00">project</text>
</g>
<!-- docs&#45;&gt;project -->
<g id="edge2" class="edge">
<title>docs&#45;&gt;project</title>
<path fill="none" stroke="black" d="M323.23,-107.41C341.39,-118.57 365.33,-133.27 383.54,-144.45"/>
</g>
<!-- talk -->
<g id="node4" class="node">
<title>talk</title>
<text text-anchor="middle" x="293.5" y="-12.95" font-family="Times,serif" font-size="14.00">talk</text>
</g>
<!-- talk&#45;&gt;docs -->
<g id="edge3" class="edge">
<title>talk&#45;&gt;docs</title>
<path fill="none" stroke="black" d="M294.23,-35.95C294.7,-46.95 295.31,-61.24 295.78,-72.21"/>
</g>
<!-- thesis -->
<g id="node5" class="node">
<title>thesis</title>
<text text-anchor="middle" x="365.5" y="-12.95" font-family="Times,serif" font-size="14.00">thesis</text>
</g>
<!-- thesis&#45;&gt;docs -->
<g id="edge4" class="edge">
<title>thesis&#45;&gt;docs</title>
<path fill="none" stroke="black" d="M348.8,-35.95C337.95,-46.95 323.87,-61.24 313.05,-72.21"/>
</g>
<!-- 2022&#45;11&#45;05 -->
<g id="node6" class="node">
<title>2022&#45;11&#45;05</title>
<text text-anchor="middle" x="39.5" y="-12.95" font-family="Times,serif" font-size="14.00">2022&#45;11&#45;05</text>
</g>
<!-- data -->
<g id="node7" class="node">
<title>data</title>
<text text-anchor="middle" x="136.5" y="-84.95" font-family="Times,serif" font-size="14.00">data</text>
</g>
<!-- 2022&#45;11&#45;05&#45;&gt;data -->
<g id="edge5" class="edge">
<title>2022&#45;11&#45;05&#45;&gt;data</title>
<path fill="none" stroke="black" d="M62.98,-35.95C78.23,-46.95 98.03,-61.24 113.24,-72.21"/>
</g>
<!-- data&#45;&gt;project -->
<g id="edge6" class="edge">
<title>data&#45;&gt;project</title>
<path fill="none" stroke="black" d="M163.27,-97.84C215.65,-111.22 331.15,-140.73 383.62,-154.13"/>
</g>
<!-- 2022&#45;10&#45;25 -->
<g id="node8" class="node">
<title>2022&#45;10&#45;25</title>
<text text-anchor="middle" x="136.5" y="-12.95" font-family="Times,serif" font-size="14.00">2022&#45;10&#45;25</text>
</g>
<!-- 2022&#45;10&#45;25&#45;&gt;data -->
<g id="edge7" class="edge">
<title>2022&#45;10&#45;25&#45;&gt;data</title>
<path fill="none" stroke="black" d="M136.5,-35.95C136.5,-46.95 136.5,-61.24 136.5,-72.21"/>
</g>
<!-- code -->
<g id="node9" class="node">
<title>code</title>
<text text-anchor="middle" x="374.5" y="-84.95" font-family="Times,serif" font-size="14.00">code</text>
</g>
<!-- code&#45;&gt;project -->
<g id="edge8" class="edge">
<title>code&#45;&gt;project</title>
<path fill="none" stroke="black" d="M383.21,-107.95C388.87,-118.95 396.22,-133.24 401.87,-144.21"/>
</g>
<!-- 2022&#45;10&#45;08 -->
<g id="node10" class="node">
<title>2022&#45;10&#45;08</title>
<text text-anchor="middle" x="450.5" y="-12.95" font-family="Times,serif" font-size="14.00">2022&#45;10&#45;08</text>
</g>
<!-- results -->
<g id="node11" class="node">
<title>results</title>
<text text-anchor="middle" x="446.5" y="-84.95" font-family="Times,serif" font-size="14.00">results</text>
</g>
<!-- 2022&#45;10&#45;08&#45;&gt;results -->
<g id="edge9" class="edge">
<title>2022&#45;10&#45;08&#45;&gt;results</title>
<path fill="none" stroke="black" d="M449.53,-35.95C448.9,-46.95 448.09,-61.24 447.46,-72.21"/>
</g>
<!-- results&#45;&gt;project -->
<g id="edge10" class="edge">
<title>results&#45;&gt;project</title>
<path fill="none" stroke="black" d="M437.79,-107.95C432.13,-118.95 424.78,-133.24 419.13,-144.21"/>
</g>
<!-- 2022&#45;10&#45;12 -->
<g id="node12" class="node">
<title>2022&#45;10&#45;12</title>
<text text-anchor="middle" x="547.5" y="-12.95" font-family="Times,serif" font-size="14.00">2022&#45;10&#45;12</text>
</g>
<!-- 2022&#45;10&#45;12&#45;&gt;results -->
<g id="edge11" class="edge">
<title>2022&#45;10&#45;12&#45;&gt;results</title>
<path fill="none" stroke="black" d="M523.05,-35.95C507.17,-46.95 486.56,-61.24 470.72,-72.21"/>
</g>
<!-- bib -->
<g id="node13" class="node">
<title>bib</title>
<text text-anchor="middle" x="518.5" y="-84.95" font-family="Times,serif" font-size="14.00">bib</text>
</g>
<!-- bib&#45;&gt;project -->
<g id="edge12" class="edge">
<title>bib&#45;&gt;project</title>
<path fill="none" stroke="black" d="M492.36,-107.95C475.38,-118.95 453.34,-133.24 436.4,-144.21"/>
</g>
<!-- extra -->
<g id="node14" class="node">
<title>extra</title>
<text text-anchor="middle" x="590.5" y="-84.95" font-family="Times,serif" font-size="14.00">extra</text>
</g>
<!-- extra&#45;&gt;project -->
<g id="edge13" class="edge">
<title>extra&#45;&gt;project</title>
<path fill="none" stroke="black" d="M563.88,-103.89C560.74,-105.32 557.56,-106.72 554.5,-108 514.21,-124.89 466.44,-141.89 437.31,-151.93"/>
</g>
</g>
</svg>
